<mxfile host="app.diagrams.net" modified="2023-06-02T14:16:26.412Z" agent="Mozilla/5.0 (Windows NT 10.0; Win64; x64) AppleWebKit/537.36 (KHTML, like Gecko) Chrome/116.0.0.0 Safari/537.36" etag="E5iyx1N0OKW9_3m6BaA0" version="21.3.7" type="device">
  <diagram name="Page-1" id="AYisnssfIyHPXOT2CwbF">
    <mxGraphModel dx="1430" dy="817" grid="1" gridSize="10" guides="1" tooltips="1" connect="1" arrows="1" fold="1" page="1" pageScale="1" pageWidth="827" pageHeight="1169" math="0" shadow="0">
      <root>
        <mxCell id="0" />
        <mxCell id="1" parent="0" />
        <mxCell id="oOEOsO-yYeTIzksyEwSU-1" style="edgeStyle=orthogonalEdgeStyle;rounded=0;orthogonalLoop=1;jettySize=auto;html=1;exitX=1;exitY=0.25;exitDx=0;exitDy=0;entryX=0;entryY=0.6;entryDx=0;entryDy=0;entryPerimeter=0;fontFamily=Helvetica;fontSize=12;fontColor=default;endArrow=none;endFill=0;" parent="1" source="oOEOsO-yYeTIzksyEwSU-2" target="oOEOsO-yYeTIzksyEwSU-26" edge="1">
          <mxGeometry relative="1" as="geometry" />
        </mxCell>
        <mxCell id="oOEOsO-yYeTIzksyEwSU-2" value="Instruction&lt;br&gt;Memory" style="rounded=0;whiteSpace=wrap;html=1;" parent="1" vertex="1">
          <mxGeometry x="588" y="959" width="120" height="160" as="geometry" />
        </mxCell>
        <mxCell id="oOEOsO-yYeTIzksyEwSU-3" style="edgeStyle=orthogonalEdgeStyle;shape=connector;rounded=0;orthogonalLoop=1;jettySize=auto;html=1;exitX=0;exitY=0.18;exitDx=0;exitDy=0;exitPerimeter=0;labelBackgroundColor=default;strokeColor=default;fontFamily=Helvetica;fontSize=12;fontColor=default;endArrow=none;endFill=0;" parent="1" source="oOEOsO-yYeTIzksyEwSU-10" edge="1">
          <mxGeometry relative="1" as="geometry">
            <mxPoint x="768" y="988" as="targetPoint" />
          </mxGeometry>
        </mxCell>
        <mxCell id="oOEOsO-yYeTIzksyEwSU-4" style="edgeStyle=orthogonalEdgeStyle;shape=connector;rounded=0;orthogonalLoop=1;jettySize=auto;html=1;exitX=0;exitY=0.64;exitDx=0;exitDy=0;exitPerimeter=0;labelBackgroundColor=default;strokeColor=default;fontFamily=Helvetica;fontSize=12;fontColor=default;endArrow=none;endFill=0;" parent="1" source="oOEOsO-yYeTIzksyEwSU-10" edge="1">
          <mxGeometry relative="1" as="geometry">
            <mxPoint x="768" y="1061.5" as="targetPoint" />
          </mxGeometry>
        </mxCell>
        <mxCell id="oOEOsO-yYeTIzksyEwSU-5" style="edgeStyle=orthogonalEdgeStyle;shape=connector;rounded=0;orthogonalLoop=1;jettySize=auto;html=1;exitX=0;exitY=0.75;exitDx=0;exitDy=0;exitPerimeter=0;labelBackgroundColor=default;strokeColor=default;fontFamily=Helvetica;fontSize=12;fontColor=default;endArrow=none;endFill=0;" parent="1" source="oOEOsO-yYeTIzksyEwSU-10" edge="1">
          <mxGeometry relative="1" as="geometry">
            <mxPoint x="768" y="1079" as="targetPoint" />
          </mxGeometry>
        </mxCell>
        <mxCell id="oOEOsO-yYeTIzksyEwSU-6" style="edgeStyle=orthogonalEdgeStyle;shape=connector;rounded=0;orthogonalLoop=1;jettySize=auto;html=1;exitX=0;exitY=0.87;exitDx=0;exitDy=0;exitPerimeter=0;labelBackgroundColor=default;strokeColor=default;fontFamily=Helvetica;fontSize=12;fontColor=default;endArrow=none;endFill=0;" parent="1" source="oOEOsO-yYeTIzksyEwSU-10" edge="1">
          <mxGeometry relative="1" as="geometry">
            <mxPoint x="748" y="1359" as="targetPoint" />
          </mxGeometry>
        </mxCell>
        <mxCell id="oOEOsO-yYeTIzksyEwSU-7" style="edgeStyle=orthogonalEdgeStyle;shape=connector;rounded=0;orthogonalLoop=1;jettySize=auto;html=1;exitX=1;exitY=0.25;exitDx=0;exitDy=0;exitPerimeter=0;entryX=0;entryY=0.2;entryDx=0;entryDy=0;entryPerimeter=0;labelBackgroundColor=default;strokeColor=default;fontFamily=Helvetica;fontSize=12;fontColor=default;endArrow=none;endFill=0;" parent="1" source="oOEOsO-yYeTIzksyEwSU-10" target="oOEOsO-yYeTIzksyEwSU-49" edge="1">
          <mxGeometry relative="1" as="geometry">
            <Array as="points">
              <mxPoint x="988" y="981" />
            </Array>
          </mxGeometry>
        </mxCell>
        <mxCell id="oOEOsO-yYeTIzksyEwSU-8" style="edgeStyle=orthogonalEdgeStyle;shape=connector;rounded=0;orthogonalLoop=1;jettySize=auto;html=1;exitX=1;exitY=0.6;exitDx=0;exitDy=0;exitPerimeter=0;entryX=0.25;entryY=1;entryDx=0;entryDy=0;entryPerimeter=0;labelBackgroundColor=default;strokeColor=default;fontFamily=Helvetica;fontSize=12;fontColor=default;endArrow=none;endFill=0;" parent="1" source="oOEOsO-yYeTIzksyEwSU-10" target="oOEOsO-yYeTIzksyEwSU-35" edge="1">
          <mxGeometry relative="1" as="geometry" />
        </mxCell>
        <mxCell id="oOEOsO-yYeTIzksyEwSU-9" style="edgeStyle=orthogonalEdgeStyle;shape=connector;rounded=0;orthogonalLoop=1;jettySize=auto;html=1;exitX=0.14;exitY=0;exitDx=0;exitDy=0;exitPerimeter=0;labelBackgroundColor=default;strokeColor=default;fontFamily=Helvetica;fontSize=12;fontColor=default;endArrow=none;endFill=0;" parent="1" source="oOEOsO-yYeTIzksyEwSU-10" edge="1">
          <mxGeometry relative="1" as="geometry">
            <mxPoint x="850" y="939" as="targetPoint" />
          </mxGeometry>
        </mxCell>
        <mxCell id="oOEOsO-yYeTIzksyEwSU-10" value="Register&lt;br&gt;File" style="rounded=0;whiteSpace=wrap;html=1;points=[[0,0.18,0,0,0],[0,0.64,0,0,0],[0,0.75,0,0,0],[0,0.87,0,0,0],[0.14,0,0,0,0],[0.55,0,0,0,0],[1,0.25,0,0,0],[1,0.6,0,0,0]];" parent="1" vertex="1">
          <mxGeometry x="828" y="959" width="160" height="160" as="geometry" />
        </mxCell>
        <mxCell id="oOEOsO-yYeTIzksyEwSU-11" style="edgeStyle=orthogonalEdgeStyle;shape=connector;rounded=0;orthogonalLoop=1;jettySize=auto;html=1;exitX=1;exitY=0.4;exitDx=0;exitDy=0;exitPerimeter=0;entryX=0.5;entryY=1;entryDx=0;entryDy=0;entryPerimeter=0;labelBackgroundColor=default;strokeColor=default;fontFamily=Helvetica;fontSize=12;fontColor=default;endArrow=none;endFill=0;" parent="1" source="oOEOsO-yYeTIzksyEwSU-15" target="oOEOsO-yYeTIzksyEwSU-38" edge="1">
          <mxGeometry relative="1" as="geometry">
            <Array as="points">
              <mxPoint x="1588" y="1023" />
            </Array>
          </mxGeometry>
        </mxCell>
        <mxCell id="oOEOsO-yYeTIzksyEwSU-12" style="edgeStyle=orthogonalEdgeStyle;shape=connector;rounded=0;orthogonalLoop=1;jettySize=auto;html=1;exitX=0;exitY=0.4;exitDx=0;exitDy=0;exitPerimeter=0;entryX=0.25;entryY=1;entryDx=0;entryDy=0;entryPerimeter=0;labelBackgroundColor=default;strokeColor=default;fontFamily=Helvetica;fontSize=12;fontColor=default;endArrow=none;endFill=0;" parent="1" source="oOEOsO-yYeTIzksyEwSU-15" target="oOEOsO-yYeTIzksyEwSU-38" edge="1">
          <mxGeometry relative="1" as="geometry">
            <Array as="points">
              <mxPoint x="1368" y="1023" />
              <mxPoint x="1368" y="899" />
              <mxPoint x="1578" y="899" />
              <mxPoint x="1578" y="1009" />
            </Array>
          </mxGeometry>
        </mxCell>
        <mxCell id="oOEOsO-yYeTIzksyEwSU-13" style="edgeStyle=orthogonalEdgeStyle;shape=connector;rounded=0;orthogonalLoop=1;jettySize=auto;html=1;exitX=0;exitY=0.9;exitDx=0;exitDy=0;exitPerimeter=0;labelBackgroundColor=default;strokeColor=default;fontFamily=Helvetica;fontSize=12;fontColor=default;endArrow=none;endFill=0;" parent="1" source="oOEOsO-yYeTIzksyEwSU-15" edge="1">
          <mxGeometry relative="1" as="geometry">
            <mxPoint x="1068" y="1059" as="targetPoint" />
            <Array as="points">
              <mxPoint x="1068" y="1103" />
              <mxPoint x="1068" y="1054" />
            </Array>
          </mxGeometry>
        </mxCell>
        <mxCell id="oOEOsO-yYeTIzksyEwSU-14" style="edgeStyle=orthogonalEdgeStyle;shape=connector;rounded=0;orthogonalLoop=1;jettySize=auto;html=1;exitX=0.25;exitY=0;exitDx=0;exitDy=0;exitPerimeter=0;labelBackgroundColor=default;strokeColor=default;fontFamily=Helvetica;fontSize=12;fontColor=default;endArrow=none;endFill=0;" parent="1" source="oOEOsO-yYeTIzksyEwSU-15" edge="1">
          <mxGeometry relative="1" as="geometry">
            <mxPoint x="1418" y="939" as="targetPoint" />
          </mxGeometry>
        </mxCell>
        <mxCell id="oOEOsO-yYeTIzksyEwSU-15" value="Data&lt;br&gt;Memory" style="rounded=0;whiteSpace=wrap;html=1;points=[[0,0.4,0,0,0],[0,0.9,0,0,0],[0.25,0,0,0,0],[0.75,0,0,0,0],[1,0.4,0,0,0]];" parent="1" vertex="1">
          <mxGeometry x="1388" y="959" width="120" height="160" as="geometry" />
        </mxCell>
        <mxCell id="oOEOsO-yYeTIzksyEwSU-16" style="edgeStyle=orthogonalEdgeStyle;shape=connector;rounded=0;orthogonalLoop=1;jettySize=auto;html=1;exitX=0;exitY=0.7;exitDx=0;exitDy=0;exitPerimeter=0;labelBackgroundColor=default;strokeColor=default;fontFamily=Helvetica;fontSize=12;fontColor=default;endArrow=none;endFill=0;" parent="1" source="oOEOsO-yYeTIzksyEwSU-26" edge="1">
          <mxGeometry relative="1" as="geometry">
            <mxPoint x="768.0000000000002" y="779.1739130434785" as="targetPoint" />
          </mxGeometry>
        </mxCell>
        <mxCell id="oOEOsO-yYeTIzksyEwSU-17" style="edgeStyle=orthogonalEdgeStyle;shape=connector;rounded=0;orthogonalLoop=1;jettySize=auto;html=1;exitX=0;exitY=0.8;exitDx=0;exitDy=0;exitPerimeter=0;labelBackgroundColor=default;strokeColor=default;fontFamily=Helvetica;fontSize=12;fontColor=default;endArrow=none;endFill=0;" parent="1" source="oOEOsO-yYeTIzksyEwSU-26" edge="1">
          <mxGeometry relative="1" as="geometry">
            <mxPoint x="768.0000000000002" y="799.1739130434785" as="targetPoint" />
          </mxGeometry>
        </mxCell>
        <mxCell id="oOEOsO-yYeTIzksyEwSU-18" style="edgeStyle=orthogonalEdgeStyle;shape=connector;rounded=0;orthogonalLoop=1;jettySize=auto;html=1;exitX=1;exitY=0.3;exitDx=0;exitDy=0;exitPerimeter=0;labelBackgroundColor=default;strokeColor=#004CFF;fontFamily=Helvetica;fontSize=12;fontColor=default;endArrow=none;endFill=0;" parent="1" source="oOEOsO-yYeTIzksyEwSU-26" target="oOEOsO-yYeTIzksyEwSU-30" edge="1">
          <mxGeometry relative="1" as="geometry">
            <mxPoint x="438" y="929" as="targetPoint" />
            <Array as="points">
              <mxPoint x="948" y="699" />
              <mxPoint x="948" y="609" />
              <mxPoint x="413" y="609" />
            </Array>
          </mxGeometry>
        </mxCell>
        <mxCell id="oOEOsO-yYeTIzksyEwSU-19" style="edgeStyle=orthogonalEdgeStyle;shape=connector;rounded=0;orthogonalLoop=1;jettySize=auto;html=1;exitX=1;exitY=0.4;exitDx=0;exitDy=0;exitPerimeter=0;labelBackgroundColor=default;strokeColor=#004CFF;fontFamily=Helvetica;fontSize=12;fontColor=default;endArrow=none;endFill=0;entryX=0.097;entryY=0.518;entryDx=0;entryDy=0;entryPerimeter=0;" parent="1" source="oOEOsO-yYeTIzksyEwSU-26" target="oOEOsO-yYeTIzksyEwSU-38" edge="1">
          <mxGeometry relative="1" as="geometry">
            <mxPoint x="1658" y="959" as="targetPoint" />
          </mxGeometry>
        </mxCell>
        <mxCell id="oOEOsO-yYeTIzksyEwSU-20" style="edgeStyle=orthogonalEdgeStyle;shape=connector;rounded=0;orthogonalLoop=1;jettySize=auto;html=1;exitX=1;exitY=0.5;exitDx=0;exitDy=0;exitPerimeter=0;entryX=0.75;entryY=0;entryDx=0;entryDy=0;entryPerimeter=0;labelBackgroundColor=default;strokeColor=#004CFF;fontFamily=Helvetica;fontSize=12;fontColor=default;endArrow=none;endFill=0;" parent="1" source="oOEOsO-yYeTIzksyEwSU-26" target="oOEOsO-yYeTIzksyEwSU-15" edge="1">
          <mxGeometry relative="1" as="geometry" />
        </mxCell>
        <mxCell id="oOEOsO-yYeTIzksyEwSU-21" style="edgeStyle=orthogonalEdgeStyle;shape=connector;rounded=0;orthogonalLoop=1;jettySize=auto;html=1;exitX=1;exitY=0.6;exitDx=0;exitDy=0;exitPerimeter=0;labelBackgroundColor=default;strokeColor=#004CFF;fontFamily=Helvetica;fontSize=12;fontColor=default;endArrow=none;endFill=0;entryX=0.53;entryY=0.15;entryDx=0;entryDy=0;entryPerimeter=0;" parent="1" source="oOEOsO-yYeTIzksyEwSU-26" target="oOEOsO-yYeTIzksyEwSU-49" edge="1">
          <mxGeometry relative="1" as="geometry" />
        </mxCell>
        <mxCell id="oOEOsO-yYeTIzksyEwSU-22" style="edgeStyle=orthogonalEdgeStyle;shape=connector;rounded=0;orthogonalLoop=1;jettySize=auto;html=1;exitX=1;exitY=0.7;exitDx=0;exitDy=0;exitPerimeter=0;entryX=0.129;entryY=0.504;entryDx=0;entryDy=0;entryPerimeter=0;labelBackgroundColor=default;strokeColor=#004CFF;fontFamily=Helvetica;fontSize=12;fontColor=default;endArrow=none;endFill=0;" parent="1" source="oOEOsO-yYeTIzksyEwSU-26" target="oOEOsO-yYeTIzksyEwSU-35" edge="1">
          <mxGeometry relative="1" as="geometry" />
        </mxCell>
        <mxCell id="oOEOsO-yYeTIzksyEwSU-23" style="edgeStyle=orthogonalEdgeStyle;shape=connector;rounded=0;orthogonalLoop=1;jettySize=auto;html=1;exitX=1;exitY=0.8;exitDx=0;exitDy=0;exitPerimeter=0;entryX=0.5;entryY=0.32;entryDx=0;entryDy=0;entryPerimeter=0;labelBackgroundColor=default;strokeColor=#004CFF;fontFamily=Helvetica;fontSize=12;fontColor=default;endArrow=none;endFill=0;" parent="1" source="oOEOsO-yYeTIzksyEwSU-26" target="oOEOsO-yYeTIzksyEwSU-41" edge="1">
          <mxGeometry relative="1" as="geometry">
            <Array as="points">
              <mxPoint x="1028" y="799" />
              <mxPoint x="1028" y="1199" />
              <mxPoint x="908" y="1199" />
            </Array>
          </mxGeometry>
        </mxCell>
        <mxCell id="oOEOsO-yYeTIzksyEwSU-24" style="edgeStyle=orthogonalEdgeStyle;shape=connector;rounded=0;orthogonalLoop=1;jettySize=auto;html=1;exitX=1;exitY=0.9;exitDx=0;exitDy=0;exitPerimeter=0;entryX=0.55;entryY=0;entryDx=0;entryDy=0;entryPerimeter=0;labelBackgroundColor=default;strokeColor=#004CFF;fontFamily=Helvetica;fontSize=12;fontColor=default;endArrow=none;endFill=0;" parent="1" source="oOEOsO-yYeTIzksyEwSU-26" target="oOEOsO-yYeTIzksyEwSU-10" edge="1">
          <mxGeometry relative="1" as="geometry">
            <Array as="points">
              <mxPoint x="916" y="819" />
            </Array>
          </mxGeometry>
        </mxCell>
        <mxCell id="oOEOsO-yYeTIzksyEwSU-25" style="edgeStyle=orthogonalEdgeStyle;shape=connector;rounded=0;orthogonalLoop=1;jettySize=auto;html=1;exitX=0;exitY=0.9;exitDx=0;exitDy=0;exitPerimeter=0;entryX=1;entryY=0.33;entryDx=0;entryDy=0;entryPerimeter=0;labelBackgroundColor=default;strokeColor=default;fontFamily=Helvetica;fontSize=12;fontColor=default;endArrow=none;endFill=0;strokeWidth=0.5;" parent="1" source="oOEOsO-yYeTIzksyEwSU-26" target="oOEOsO-yYeTIzksyEwSU-49" edge="1">
          <mxGeometry relative="1" as="geometry">
            <Array as="points">
              <mxPoint x="808" y="819" />
              <mxPoint x="808" y="919" />
              <mxPoint x="1288" y="919" />
              <mxPoint x="1288" y="1000" />
            </Array>
          </mxGeometry>
        </mxCell>
        <mxCell id="oOEOsO-yYeTIzksyEwSU-26" value="&lt;font color=&quot;#004cff&quot;&gt;Control&lt;br&gt;Unit&lt;br&gt;&lt;br&gt;&lt;br&gt;&lt;br&gt;&lt;br&gt;&lt;br&gt;&lt;br&gt;&lt;br&gt;&lt;/font&gt;" style="rounded=1;whiteSpace=wrap;html=1;strokeColor=#004cff;points=[[0,0.6,0,0,0],[0,0.7,0,0,0],[0,0.8,0,0,0],[0,0.9,0,0,0],[1,0.3,0,0,0],[1,0.4,0,0,0],[1,0.5,0,0,0],[1,0.6,0,0,0],[1,0.7,0,0,0],[1,0.8,0,0,0],[1,0.9,0,0,0]];" parent="1" vertex="1">
          <mxGeometry x="828" y="639" width="80" height="200" as="geometry" />
        </mxCell>
        <mxCell id="oOEOsO-yYeTIzksyEwSU-27" style="edgeStyle=orthogonalEdgeStyle;rounded=0;orthogonalLoop=1;jettySize=auto;html=1;exitX=0.5;exitY=0;exitDx=0;exitDy=0;entryX=0;entryY=0.5;entryDx=0;entryDy=0;endArrow=none;endFill=0;" parent="1" source="oOEOsO-yYeTIzksyEwSU-30" target="oOEOsO-yYeTIzksyEwSU-33" edge="1">
          <mxGeometry relative="1" as="geometry" />
        </mxCell>
        <mxCell id="oOEOsO-yYeTIzksyEwSU-28" style="edgeStyle=orthogonalEdgeStyle;shape=connector;rounded=0;orthogonalLoop=1;jettySize=auto;html=1;exitX=0.25;exitY=1;exitDx=0;exitDy=0;exitPerimeter=0;entryX=1;entryY=0.5;entryDx=0;entryDy=0;entryPerimeter=0;labelBackgroundColor=default;strokeColor=default;fontFamily=Helvetica;fontSize=12;fontColor=default;endArrow=none;endFill=0;" parent="1" source="oOEOsO-yYeTIzksyEwSU-30" target="oOEOsO-yYeTIzksyEwSU-44" edge="1">
          <mxGeometry relative="1" as="geometry">
            <Array as="points">
              <mxPoint x="388" y="982" />
              <mxPoint x="388" y="1399" />
              <mxPoint x="688" y="1399" />
              <mxPoint x="688" y="1318" />
            </Array>
          </mxGeometry>
        </mxCell>
        <mxCell id="oOEOsO-yYeTIzksyEwSU-29" style="edgeStyle=orthogonalEdgeStyle;shape=connector;rounded=0;orthogonalLoop=1;jettySize=auto;html=1;exitX=0.75;exitY=1;exitDx=0;exitDy=0;exitPerimeter=0;labelBackgroundColor=default;strokeColor=default;fontFamily=Helvetica;fontSize=12;fontColor=default;endArrow=none;endFill=0;entryX=1;entryY=0.5;entryDx=0;entryDy=0;entryPerimeter=0;" parent="1" source="oOEOsO-yYeTIzksyEwSU-30" target="oOEOsO-yYeTIzksyEwSU-47" edge="1">
          <mxGeometry relative="1" as="geometry">
            <mxPoint x="1638" y="1852.4909889914773" as="targetPoint" />
            <Array as="points">
              <mxPoint x="348" y="1016" />
              <mxPoint x="348" y="1439" />
              <mxPoint x="1271" y="1439" />
              <mxPoint x="1271" y="1210" />
            </Array>
          </mxGeometry>
        </mxCell>
        <mxCell id="oOEOsO-yYeTIzksyEwSU-30" value="" style="shape=trapezoid;perimeter=trapezoidPerimeter;whiteSpace=wrap;html=1;fixedSize=1;rotation=90;size=10.25;points=[[0.25,1,0,0,0],[0.5,0,0,0,-15],[0.5,0,0,0,0],[0.75,1,0,0,0]];" parent="1" vertex="1">
          <mxGeometry x="378" y="984.25" width="70" height="29.5" as="geometry" />
        </mxCell>
        <mxCell id="oOEOsO-yYeTIzksyEwSU-31" style="edgeStyle=orthogonalEdgeStyle;rounded=0;orthogonalLoop=1;jettySize=auto;html=1;exitX=1;exitY=0.5;exitDx=0;exitDy=0;entryX=0;entryY=0.25;entryDx=0;entryDy=0;endArrow=none;endFill=0;" parent="1" source="oOEOsO-yYeTIzksyEwSU-33" target="oOEOsO-yYeTIzksyEwSU-2" edge="1">
          <mxGeometry relative="1" as="geometry" />
        </mxCell>
        <mxCell id="oOEOsO-yYeTIzksyEwSU-32" style="edgeStyle=orthogonalEdgeStyle;shape=connector;rounded=0;orthogonalLoop=1;jettySize=auto;html=1;exitX=0.5;exitY=0;exitDx=0;exitDy=0;labelBackgroundColor=default;strokeColor=default;fontFamily=Helvetica;fontSize=12;fontColor=default;endArrow=none;endFill=0;" parent="1" source="oOEOsO-yYeTIzksyEwSU-33" edge="1">
          <mxGeometry relative="1" as="geometry">
            <mxPoint x="493" y="949" as="targetPoint" />
          </mxGeometry>
        </mxCell>
        <mxCell id="oOEOsO-yYeTIzksyEwSU-33" value="" style="rounded=0;whiteSpace=wrap;html=1;" parent="1" vertex="1">
          <mxGeometry x="478" y="969" width="30" height="60" as="geometry" />
        </mxCell>
        <mxCell id="oOEOsO-yYeTIzksyEwSU-34" style="edgeStyle=orthogonalEdgeStyle;shape=connector;rounded=0;orthogonalLoop=1;jettySize=auto;html=1;exitX=0.5;exitY=0;exitDx=0;exitDy=0;exitPerimeter=0;entryX=0;entryY=0.8;entryDx=0;entryDy=0;entryPerimeter=0;labelBackgroundColor=default;strokeColor=default;fontFamily=Helvetica;fontSize=12;fontColor=default;endArrow=none;endFill=0;" parent="1" source="oOEOsO-yYeTIzksyEwSU-35" target="oOEOsO-yYeTIzksyEwSU-49" edge="1">
          <mxGeometry relative="1" as="geometry" />
        </mxCell>
        <mxCell id="oOEOsO-yYeTIzksyEwSU-35" value="" style="shape=trapezoid;perimeter=trapezoidPerimeter;whiteSpace=wrap;html=1;fixedSize=1;rotation=90;size=10.25;points=[[0.25,1,0,0,0],[0.5,0,0,0,-9],[0.5,0,0,0,0],[0.75,1,0,0,0]];" parent="1" vertex="1">
          <mxGeometry x="1094" y="1057" width="50" height="19.5" as="geometry" />
        </mxCell>
        <mxCell id="oOEOsO-yYeTIzksyEwSU-36" style="edgeStyle=orthogonalEdgeStyle;shape=connector;rounded=0;orthogonalLoop=1;jettySize=auto;html=1;exitX=0.5;exitY=0;exitDx=0;exitDy=0;exitPerimeter=0;labelBackgroundColor=default;strokeColor=default;fontFamily=Helvetica;fontSize=12;fontColor=default;endArrow=none;endFill=0;" parent="1" source="oOEOsO-yYeTIzksyEwSU-38" edge="1">
          <mxGeometry relative="1" as="geometry">
            <mxPoint x="748" y="1360.4544862689395" as="targetPoint" />
            <Array as="points">
              <mxPoint x="1628" y="1024" />
              <mxPoint x="1628" y="1360" />
            </Array>
          </mxGeometry>
        </mxCell>
        <mxCell id="oOEOsO-yYeTIzksyEwSU-37" style="edgeStyle=orthogonalEdgeStyle;shape=connector;rounded=0;orthogonalLoop=1;jettySize=auto;html=1;exitX=0.75;exitY=1;exitDx=0;exitDy=0;exitPerimeter=0;labelBackgroundColor=default;strokeColor=default;fontFamily=Helvetica;fontSize=12;fontColor=default;endArrow=none;endFill=0;entryX=1;entryY=0.5;entryDx=0;entryDy=0;entryPerimeter=0;" parent="1" source="oOEOsO-yYeTIzksyEwSU-38" target="oOEOsO-yYeTIzksyEwSU-44" edge="1">
          <mxGeometry relative="1" as="geometry">
            <mxPoint x="678" y="1339" as="targetPoint" />
            <Array as="points">
              <mxPoint x="1588" y="1040" />
              <mxPoint x="1550" y="1040" />
              <mxPoint x="1550" y="1319" />
              <mxPoint x="668" y="1319" />
            </Array>
          </mxGeometry>
        </mxCell>
        <mxCell id="oOEOsO-yYeTIzksyEwSU-38" value="" style="shape=trapezoid;perimeter=trapezoidPerimeter;whiteSpace=wrap;html=1;fixedSize=1;rotation=90;points=[[0.25,1,0,0,0],[0.5,0,0,0,-15],[0.5,0,0,0,0],[0.5,1,0,0,0],[0.75,1,0,0,0]];size=9.75;" parent="1" vertex="1">
          <mxGeometry x="1562" y="1019.75" width="72" height="20" as="geometry" />
        </mxCell>
        <mxCell id="oOEOsO-yYeTIzksyEwSU-39" style="edgeStyle=orthogonalEdgeStyle;shape=connector;rounded=0;orthogonalLoop=1;jettySize=auto;html=1;exitX=0;exitY=0.8;exitDx=0;exitDy=0;exitPerimeter=0;labelBackgroundColor=default;strokeColor=default;fontFamily=Helvetica;fontSize=12;fontColor=default;endArrow=none;endFill=0;" parent="1" source="oOEOsO-yYeTIzksyEwSU-41" edge="1">
          <mxGeometry relative="1" as="geometry">
            <mxPoint x="768.0000000000002" y="989" as="targetPoint" />
          </mxGeometry>
        </mxCell>
        <mxCell id="oOEOsO-yYeTIzksyEwSU-40" style="edgeStyle=orthogonalEdgeStyle;shape=connector;rounded=0;orthogonalLoop=1;jettySize=auto;html=1;exitX=1;exitY=0.5;exitDx=0;exitDy=0;exitPerimeter=0;labelBackgroundColor=default;strokeColor=default;fontFamily=Helvetica;fontSize=12;fontColor=default;endArrow=none;endFill=0;entryX=0.75;entryY=1;entryDx=0;entryDy=0;entryPerimeter=0;" parent="1" source="oOEOsO-yYeTIzksyEwSU-41" target="oOEOsO-yYeTIzksyEwSU-35" edge="1">
          <mxGeometry relative="1" as="geometry">
            <mxPoint x="1088" y="1089" as="targetPoint" />
            <Array as="points">
              <mxPoint x="1098" y="1249" />
              <mxPoint x="1098" y="1079" />
            </Array>
          </mxGeometry>
        </mxCell>
        <UserObject label="Extend" tooltip="" id="oOEOsO-yYeTIzksyEwSU-41">
          <mxCell style="shape=manualInput;whiteSpace=wrap;html=1;size=40;points=[[0,0.8,0,0,0],[0.5,0.32,0,0,0],[1,0.55,0,0,0]];" parent="1" vertex="1">
            <mxGeometry x="828" y="1219" width="160" height="60" as="geometry" />
          </mxCell>
        </UserObject>
        <mxCell id="oOEOsO-yYeTIzksyEwSU-42" style="edgeStyle=orthogonalEdgeStyle;shape=connector;rounded=0;orthogonalLoop=1;jettySize=auto;html=1;exitX=0;exitY=0.2;exitDx=0;exitDy=0;exitPerimeter=0;labelBackgroundColor=default;strokeColor=default;fontFamily=Helvetica;fontSize=12;fontColor=default;endArrow=none;endFill=0;" parent="1" source="oOEOsO-yYeTIzksyEwSU-44" edge="1">
          <mxGeometry relative="1" as="geometry">
            <mxPoint x="548" y="999" as="targetPoint" />
          </mxGeometry>
        </mxCell>
        <mxCell id="oOEOsO-yYeTIzksyEwSU-43" style="edgeStyle=orthogonalEdgeStyle;shape=connector;rounded=0;orthogonalLoop=1;jettySize=auto;html=1;exitX=0;exitY=0.8;exitDx=0;exitDy=0;exitPerimeter=0;labelBackgroundColor=default;strokeColor=default;fontFamily=Helvetica;fontSize=12;fontColor=default;endArrow=none;endFill=0;" parent="1" source="oOEOsO-yYeTIzksyEwSU-44" edge="1">
          <mxGeometry relative="1" as="geometry">
            <mxPoint x="548" y="1357" as="targetPoint" />
          </mxGeometry>
        </mxCell>
        <mxCell id="oOEOsO-yYeTIzksyEwSU-44" value="" style="shape=stencil(tZXdjoIwEIWfprem0LBeG9T3qDi7NNaWtF3dfXsHCsaC+IMlISRzDvN1ms5QwnJb8gpISkvC1iRNE0rxjfG5F3NbQeG8eOJG8J0E71hn9AHOYu9ahlAlGOFql20IXeE39cPyQiuFEKGVDZwbH2FcKMylfx7WLv8fRBXyj+DAtEV6laTb17GLbB5wMlO9IbarPnq98cBhxclcBxcNnEzHshyVseZm+Y4Xhx+jf9V+mDXqfWsDd4yrLaT0g/dgmxWvR3JgdPZRn+DJoN0ndwAp1A3g+qtoESwCYzmB0Ws8+jHiK3ufkIWIbEIRERC9A3lpH4XU9lFToT7SV3iZjHVkkzZo6Ub1F1AjXAA=);whiteSpace=wrap;html=1;rounded=1;pointerEvents=0;fontFamily=Helvetica;fontSize=12;fontColor=default;fillColor=default;gradientColor=none;arcSize=50;points=[[0,0.2,0,0,0],[0,0.8,0,0,0],[1,0.5,0,0,0]];" parent="1" vertex="1">
          <mxGeometry x="603" y="1252" width="65" height="131" as="geometry" />
        </mxCell>
        <mxCell id="oOEOsO-yYeTIzksyEwSU-45" style="edgeStyle=orthogonalEdgeStyle;shape=connector;rounded=0;orthogonalLoop=1;jettySize=auto;html=1;exitX=0;exitY=0.8;exitDx=0;exitDy=0;exitPerimeter=0;labelBackgroundColor=default;strokeColor=default;fontFamily=Helvetica;fontSize=12;fontColor=default;endArrow=none;endFill=0;" parent="1" source="oOEOsO-yYeTIzksyEwSU-47" edge="1">
          <mxGeometry relative="1" as="geometry">
            <mxPoint x="1098" y="1249" as="targetPoint" />
          </mxGeometry>
        </mxCell>
        <mxCell id="oOEOsO-yYeTIzksyEwSU-46" style="edgeStyle=orthogonalEdgeStyle;shape=connector;rounded=0;orthogonalLoop=1;jettySize=auto;html=1;exitX=0;exitY=0.2;exitDx=0;exitDy=0;exitPerimeter=0;labelBackgroundColor=default;strokeColor=default;fontFamily=Helvetica;fontSize=12;fontColor=default;endArrow=none;endFill=0;" parent="1" source="oOEOsO-yYeTIzksyEwSU-47" edge="1">
          <mxGeometry relative="1" as="geometry">
            <mxPoint x="547.9999999999998" y="1170.454545454545" as="targetPoint" />
          </mxGeometry>
        </mxCell>
        <mxCell id="oOEOsO-yYeTIzksyEwSU-47" value="" style="shape=stencil(tZXdjoIwEIWfprem0LBeG9T3qDi7NNaWtF3dfXsHCsaC+IMlISRzDvN1ms5QwnJb8gpISkvC1iRNE0rxjfG5F3NbQeG8eOJG8J0E71hn9AHOYu9ahlAlGOFql20IXeE39cPyQiuFEKGVDZwbH2FcKMylfx7WLv8fRBXyj+DAtEV6laTb17GLbB5wMlO9IbarPnq98cBhxclcBxcNnEzHshyVseZm+Y4Xhx+jf9V+mDXqfWsDd4yrLaT0g/dgmxWvR3JgdPZRn+DJoN0ndwAp1A3g+qtoESwCYzmB0Ws8+jHiK3ufkIWIbEIRERC9A3lpH4XU9lFToT7SV3iZjHVkkzZo6Ub1F1AjXAA=);whiteSpace=wrap;html=1;rounded=1;pointerEvents=0;fontFamily=Helvetica;fontSize=12;fontColor=default;fillColor=default;gradientColor=none;arcSize=50;points=[[0,0.2,0,0,0],[0,0.8,0,0,0],[1,0.5,0,0,0]];" parent="1" vertex="1">
          <mxGeometry x="1186" y="1145" width="65" height="131" as="geometry" />
        </mxCell>
        <mxCell id="oOEOsO-yYeTIzksyEwSU-48" style="edgeStyle=orthogonalEdgeStyle;shape=connector;rounded=0;orthogonalLoop=1;jettySize=auto;html=1;exitX=1;exitY=0.5;exitDx=0;exitDy=0;exitPerimeter=0;entryX=0;entryY=0.4;entryDx=0;entryDy=0;entryPerimeter=0;labelBackgroundColor=default;strokeColor=default;fontFamily=Helvetica;fontSize=12;fontColor=default;endArrow=none;endFill=0;" parent="1" source="oOEOsO-yYeTIzksyEwSU-49" target="oOEOsO-yYeTIzksyEwSU-15" edge="1">
          <mxGeometry relative="1" as="geometry" />
        </mxCell>
        <mxCell id="oOEOsO-yYeTIzksyEwSU-49" value="" style="shape=stencil(tZXdjoIwEIWfprem0LBeG9T3qDi7NNaWtF3dfXsHCsaC+IMlISRzDvN1ms5QwnJb8gpISkvC1iRNE0rxjfG5F3NbQeG8eOJG8J0E71hn9AHOYu9ahlAlGOFql20IXeE39cPyQiuFEKGVDZwbH2FcKMylfx7WLv8fRBXyj+DAtEV6laTb17GLbB5wMlO9IbarPnq98cBhxclcBxcNnEzHshyVseZm+Y4Xhx+jf9V+mDXqfWsDd4yrLaT0g/dgmxWvR3JgdPZRn+DJoN0ndwAp1A3g+qtoESwCYzmB0Ws8+jHiK3ufkIWIbEIRERC9A3lpH4XU9lFToT7SV3iZjHVkkzZo6Ub1F1AjXAA=);whiteSpace=wrap;html=1;rounded=1;pointerEvents=0;fontFamily=Helvetica;fontSize=12;fontColor=default;fillColor=default;gradientColor=none;arcSize=22;points=[[0,0.2,0,0,0],[0,0.8,0,0,0],[0.53,0.15,0,0,0],[1,0.33,0,0,0],[1,0.5,0,0,0]];" parent="1" vertex="1">
          <mxGeometry x="1188" y="952.62" width="60" height="142.25" as="geometry" />
        </mxCell>
        <mxCell id="oOEOsO-yYeTIzksyEwSU-50" value="clk" style="text;html=1;align=center;verticalAlign=middle;resizable=0;points=[];autosize=1;strokeColor=none;fillColor=none;fontSize=12;fontFamily=Helvetica;fontColor=default;" parent="1" vertex="1">
          <mxGeometry x="828" y="917" width="40" height="30" as="geometry" />
        </mxCell>
        <mxCell id="oOEOsO-yYeTIzksyEwSU-51" value="clk&lt;br&gt;" style="text;html=1;align=center;verticalAlign=middle;resizable=0;points=[];autosize=1;strokeColor=none;fillColor=none;fontSize=12;fontFamily=Helvetica;fontColor=default;" parent="1" vertex="1">
          <mxGeometry x="473" y="922.62" width="40" height="30" as="geometry" />
        </mxCell>
        <mxCell id="oOEOsO-yYeTIzksyEwSU-52" value="4" style="text;html=1;align=center;verticalAlign=middle;resizable=0;points=[];autosize=1;strokeColor=none;fillColor=none;fontSize=12;fontFamily=Helvetica;fontColor=default;" parent="1" vertex="1">
          <mxGeometry x="526" y="1343" width="30" height="30" as="geometry" />
        </mxCell>
        <mxCell id="oOEOsO-yYeTIzksyEwSU-53" value="clk" style="text;html=1;align=center;verticalAlign=middle;resizable=0;points=[];autosize=1;strokeColor=none;fillColor=none;fontSize=12;fontFamily=Helvetica;fontColor=default;" parent="1" vertex="1">
          <mxGeometry x="1398" y="917" width="40" height="30" as="geometry" />
        </mxCell>
        <mxCell id="oOEOsO-yYeTIzksyEwSU-54" value="0" style="text;html=1;align=center;verticalAlign=middle;resizable=0;points=[];autosize=1;strokeColor=none;fillColor=none;fontSize=12;fontFamily=Helvetica;fontColor=default;" parent="1" vertex="1">
          <mxGeometry x="393" y="969" width="30" height="30" as="geometry" />
        </mxCell>
        <mxCell id="oOEOsO-yYeTIzksyEwSU-55" value="1" style="text;html=1;align=center;verticalAlign=middle;resizable=0;points=[];autosize=1;strokeColor=none;fillColor=none;fontSize=12;fontFamily=Helvetica;fontColor=default;" parent="1" vertex="1">
          <mxGeometry x="393" y="999" width="30" height="30" as="geometry" />
        </mxCell>
        <mxCell id="oOEOsO-yYeTIzksyEwSU-56" value="PCNext" style="text;html=1;align=center;verticalAlign=middle;resizable=0;points=[];autosize=1;strokeColor=none;fillColor=none;fontSize=12;fontFamily=Helvetica;fontColor=default;" parent="1" vertex="1">
          <mxGeometry x="419" y="976" width="60" height="30" as="geometry" />
        </mxCell>
        <mxCell id="oOEOsO-yYeTIzksyEwSU-57" value="" style="triangle;whiteSpace=wrap;html=1;rounded=0;pointerEvents=0;strokeColor=default;fontFamily=Helvetica;fontSize=12;fontColor=default;fillColor=none;gradientColor=none;rotation=90;" parent="1" vertex="1">
          <mxGeometry x="487.5" y="964.25" width="11" height="20" as="geometry" />
        </mxCell>
        <mxCell id="oOEOsO-yYeTIzksyEwSU-58" value="PC" style="text;html=1;align=center;verticalAlign=middle;resizable=0;points=[];autosize=1;strokeColor=none;fillColor=none;fontSize=12;fontFamily=Helvetica;fontColor=default;" parent="1" vertex="1">
          <mxGeometry x="498.5" y="976" width="40" height="30" as="geometry" />
        </mxCell>
        <mxCell id="oOEOsO-yYeTIzksyEwSU-59" value="A" style="text;html=1;align=center;verticalAlign=middle;resizable=0;points=[];autosize=1;strokeColor=none;fillColor=none;fontSize=12;fontFamily=Helvetica;fontColor=default;" parent="1" vertex="1">
          <mxGeometry x="588" y="984.25" width="30" height="30" as="geometry" />
        </mxCell>
        <mxCell id="oOEOsO-yYeTIzksyEwSU-60" value="RD" style="text;html=1;align=center;verticalAlign=middle;resizable=0;points=[];autosize=1;strokeColor=none;fillColor=none;fontSize=12;fontFamily=Helvetica;fontColor=default;" parent="1" vertex="1">
          <mxGeometry x="678" y="984.25" width="40" height="30" as="geometry" />
        </mxCell>
        <mxCell id="oOEOsO-yYeTIzksyEwSU-61" value="Instr" style="text;html=1;align=center;verticalAlign=middle;resizable=0;points=[];autosize=1;strokeColor=none;fillColor=none;fontSize=12;fontFamily=Helvetica;fontColor=default;" parent="1" vertex="1">
          <mxGeometry x="698" y="976" width="50" height="30" as="geometry" />
        </mxCell>
        <mxCell id="oOEOsO-yYeTIzksyEwSU-62" value="&lt;font style=&quot;font-size: 16px;&quot;&gt;+&lt;/font&gt;" style="text;html=1;align=center;verticalAlign=middle;resizable=0;points=[];autosize=1;strokeColor=none;fillColor=none;fontSize=12;fontFamily=Helvetica;fontColor=default;" parent="1" vertex="1">
          <mxGeometry x="638" y="1302.5" width="30" height="30" as="geometry" />
        </mxCell>
        <mxCell id="oOEOsO-yYeTIzksyEwSU-63" value="PCPlus4" style="text;html=1;align=center;verticalAlign=middle;resizable=0;points=[];autosize=1;strokeColor=none;fillColor=none;fontSize=12;fontFamily=Helvetica;fontColor=default;" parent="1" vertex="1">
          <mxGeometry x="668" y="1295" width="70" height="30" as="geometry" />
        </mxCell>
        <mxCell id="oOEOsO-yYeTIzksyEwSU-64" value="ImmExt" style="text;html=1;align=center;verticalAlign=middle;resizable=0;points=[];autosize=1;strokeColor=none;fillColor=none;fontSize=12;fontFamily=Helvetica;fontColor=default;" parent="1" vertex="1">
          <mxGeometry x="982" y="1225" width="60" height="30" as="geometry" />
        </mxCell>
        <mxCell id="oOEOsO-yYeTIzksyEwSU-65" value="PCTarget" style="text;html=1;align=center;verticalAlign=middle;resizable=0;points=[];autosize=1;strokeColor=none;fillColor=none;fontSize=12;fontFamily=Helvetica;fontColor=default;" parent="1" vertex="1">
          <mxGeometry x="1258" y="1145" width="70" height="30" as="geometry" />
        </mxCell>
        <mxCell id="oOEOsO-yYeTIzksyEwSU-66" value="Result" style="text;html=1;align=center;verticalAlign=middle;resizable=0;points=[];autosize=1;strokeColor=none;fillColor=none;fontSize=12;fontFamily=Helvetica;fontColor=default;" parent="1" vertex="1">
          <mxGeometry x="1576" y="1336" width="60" height="30" as="geometry" />
        </mxCell>
        <mxCell id="oOEOsO-yYeTIzksyEwSU-67" value="ReadData" style="text;html=1;align=center;verticalAlign=middle;resizable=0;points=[];autosize=1;strokeColor=none;fillColor=none;fontSize=12;fontFamily=Helvetica;fontColor=default;" parent="1" vertex="1">
          <mxGeometry x="1496" y="999" width="80" height="30" as="geometry" />
        </mxCell>
        <mxCell id="oOEOsO-yYeTIzksyEwSU-68" value="&lt;font style=&quot;font-size: 7px;&quot;&gt;10&lt;/font&gt;" style="text;html=1;align=center;verticalAlign=middle;resizable=0;points=[];autosize=1;strokeColor=none;fillColor=none;fontSize=12;fontFamily=Helvetica;fontColor=default;" parent="1" vertex="1">
          <mxGeometry x="1583" y="1019.75" width="30" height="30" as="geometry" />
        </mxCell>
        <mxCell id="oOEOsO-yYeTIzksyEwSU-69" value="&lt;font style=&quot;font-size: 7px;&quot;&gt;00&lt;/font&gt;" style="text;html=1;align=center;verticalAlign=middle;resizable=0;points=[];autosize=1;strokeColor=none;fillColor=none;fontSize=12;fontFamily=Helvetica;fontColor=default;" parent="1" vertex="1">
          <mxGeometry x="1582" y="989.75" width="30" height="30" as="geometry" />
        </mxCell>
        <mxCell id="oOEOsO-yYeTIzksyEwSU-70" value="&lt;font style=&quot;font-size: 7px;&quot;&gt;01&lt;/font&gt;" style="text;html=1;align=center;verticalAlign=middle;resizable=0;points=[];autosize=1;strokeColor=none;fillColor=none;fontSize=12;fontFamily=Helvetica;fontColor=default;" parent="1" vertex="1">
          <mxGeometry x="1583" y="1003.7499999999999" width="30" height="30" as="geometry" />
        </mxCell>
        <mxCell id="oOEOsO-yYeTIzksyEwSU-71" value="" style="triangle;whiteSpace=wrap;html=1;rounded=0;pointerEvents=0;strokeColor=default;fontFamily=Helvetica;fontSize=12;fontColor=default;fillColor=none;gradientColor=none;rotation=90;" parent="1" vertex="1">
          <mxGeometry x="1408" y="956" width="20" height="26" as="geometry" />
        </mxCell>
        <mxCell id="oOEOsO-yYeTIzksyEwSU-72" value="WE" style="text;html=1;align=center;verticalAlign=middle;resizable=0;points=[];autosize=1;strokeColor=none;fillColor=none;fontSize=12;fontFamily=Helvetica;fontColor=default;" parent="1" vertex="1">
          <mxGeometry x="1458" y="956" width="40" height="30" as="geometry" />
        </mxCell>
        <mxCell id="oOEOsO-yYeTIzksyEwSU-73" value="A" style="text;html=1;align=center;verticalAlign=middle;resizable=0;points=[];autosize=1;strokeColor=none;fillColor=none;fontSize=12;fontFamily=Helvetica;fontColor=default;" parent="1" vertex="1">
          <mxGeometry x="1382" y="1009" width="30" height="30" as="geometry" />
        </mxCell>
        <mxCell id="oOEOsO-yYeTIzksyEwSU-74" value="RD" style="text;html=1;align=center;verticalAlign=middle;resizable=0;points=[];autosize=1;strokeColor=none;fillColor=none;fontSize=12;fontFamily=Helvetica;fontColor=default;" parent="1" vertex="1">
          <mxGeometry x="1477" y="1008" width="40" height="30" as="geometry" />
        </mxCell>
        <mxCell id="oOEOsO-yYeTIzksyEwSU-75" value="WD" style="text;html=1;align=center;verticalAlign=middle;resizable=0;points=[];autosize=1;strokeColor=none;fillColor=none;fontSize=12;fontFamily=Helvetica;fontColor=default;" parent="1" vertex="1">
          <mxGeometry x="1382" y="1089" width="40" height="30" as="geometry" />
        </mxCell>
        <mxCell id="oOEOsO-yYeTIzksyEwSU-76" value="Zero" style="text;html=1;align=center;verticalAlign=middle;resizable=0;points=[];autosize=1;strokeColor=none;fillColor=none;fontSize=12;fontFamily=Helvetica;fontColor=default;" parent="1" vertex="1">
          <mxGeometry x="1238" y="976" width="50" height="30" as="geometry" />
        </mxCell>
        <mxCell id="oOEOsO-yYeTIzksyEwSU-77" value="ALUResult" style="text;html=1;align=center;verticalAlign=middle;resizable=0;points=[];autosize=1;strokeColor=none;fillColor=none;fontSize=12;fontFamily=Helvetica;fontColor=default;" parent="1" vertex="1">
          <mxGeometry x="1238" y="1003.75" width="80" height="30" as="geometry" />
        </mxCell>
        <mxCell id="oOEOsO-yYeTIzksyEwSU-78" value="WriteData" style="text;html=1;align=center;verticalAlign=middle;resizable=0;points=[];autosize=1;strokeColor=none;fillColor=none;fontSize=12;fontFamily=Helvetica;fontColor=default;" parent="1" vertex="1">
          <mxGeometry x="1235" y="1076.5" width="80" height="30" as="geometry" />
        </mxCell>
        <mxCell id="oOEOsO-yYeTIzksyEwSU-79" value="&lt;font style=&quot;font-size: 9px;&quot;&gt;0&lt;/font&gt;" style="text;html=1;align=center;verticalAlign=middle;resizable=0;points=[];autosize=1;strokeColor=none;fillColor=none;fontSize=12;fontFamily=Helvetica;fontColor=default;" parent="1" vertex="1">
          <mxGeometry x="1101" y="1039" width="30" height="30" as="geometry" />
        </mxCell>
        <mxCell id="oOEOsO-yYeTIzksyEwSU-80" value="&lt;font style=&quot;font-size: 9px;&quot;&gt;1&lt;/font&gt;" style="text;html=1;align=center;verticalAlign=middle;resizable=0;points=[];autosize=1;strokeColor=none;fillColor=none;fontSize=12;fontFamily=Helvetica;fontColor=default;" parent="1" vertex="1">
          <mxGeometry x="1102" y="1064" width="30" height="30" as="geometry" />
        </mxCell>
        <mxCell id="oOEOsO-yYeTIzksyEwSU-81" value="&lt;font style=&quot;font-size: 16px;&quot;&gt;+&lt;/font&gt;" style="text;html=1;align=center;verticalAlign=middle;resizable=0;points=[];autosize=1;strokeColor=none;fillColor=none;fontSize=12;fontFamily=Helvetica;fontColor=default;" parent="1" vertex="1">
          <mxGeometry x="1218" y="1195.5" width="30" height="30" as="geometry" />
        </mxCell>
        <mxCell id="oOEOsO-yYeTIzksyEwSU-82" value="ALU" style="text;html=1;align=center;verticalAlign=middle;resizable=0;points=[];autosize=1;strokeColor=none;fillColor=none;fontSize=12;fontFamily=Helvetica;fontColor=default;rotation=-90;" parent="1" vertex="1">
          <mxGeometry x="1208" y="1008" width="50" height="30" as="geometry" />
        </mxCell>
        <mxCell id="oOEOsO-yYeTIzksyEwSU-83" value="SrcA" style="text;html=1;align=center;verticalAlign=middle;resizable=0;points=[];autosize=1;strokeColor=none;fillColor=none;fontSize=12;fontFamily=Helvetica;fontColor=default;" parent="1" vertex="1">
          <mxGeometry x="1144" y="959" width="50" height="30" as="geometry" />
        </mxCell>
        <mxCell id="oOEOsO-yYeTIzksyEwSU-84" value="SrcB" style="text;html=1;align=center;verticalAlign=middle;resizable=0;points=[];autosize=1;strokeColor=none;fillColor=none;fontSize=12;fontFamily=Helvetica;fontColor=default;" parent="1" vertex="1">
          <mxGeometry x="1144" y="1046.5" width="50" height="30" as="geometry" />
        </mxCell>
        <mxCell id="oOEOsO-yYeTIzksyEwSU-85" value="RD1" style="text;html=1;align=center;verticalAlign=middle;resizable=0;points=[];autosize=1;strokeColor=none;fillColor=none;fontSize=12;fontFamily=Helvetica;fontColor=default;" parent="1" vertex="1">
          <mxGeometry x="948" y="969" width="50" height="30" as="geometry" />
        </mxCell>
        <mxCell id="oOEOsO-yYeTIzksyEwSU-86" value="RD2" style="text;html=1;align=center;verticalAlign=middle;resizable=0;points=[];autosize=1;strokeColor=none;fillColor=none;fontSize=12;fontFamily=Helvetica;fontColor=default;" parent="1" vertex="1">
          <mxGeometry x="948" y="1039" width="50" height="30" as="geometry" />
        </mxCell>
        <mxCell id="oOEOsO-yYeTIzksyEwSU-87" value="A1" style="text;html=1;align=center;verticalAlign=middle;resizable=0;points=[];autosize=1;strokeColor=none;fillColor=none;fontSize=12;fontFamily=Helvetica;fontColor=default;" parent="1" vertex="1">
          <mxGeometry x="818" y="973.75" width="40" height="30" as="geometry" />
        </mxCell>
        <mxCell id="oOEOsO-yYeTIzksyEwSU-88" value="A2" style="text;html=1;align=center;verticalAlign=middle;resizable=0;points=[];autosize=1;strokeColor=none;fillColor=none;fontSize=12;fontFamily=Helvetica;fontColor=default;" parent="1" vertex="1">
          <mxGeometry x="818" y="1046.5" width="40" height="30" as="geometry" />
        </mxCell>
        <mxCell id="oOEOsO-yYeTIzksyEwSU-89" value="A3" style="text;html=1;align=center;verticalAlign=middle;resizable=0;points=[];autosize=1;strokeColor=none;fillColor=none;fontSize=12;fontFamily=Helvetica;fontColor=default;" parent="1" vertex="1">
          <mxGeometry x="818" y="1064.87" width="40" height="30" as="geometry" />
        </mxCell>
        <mxCell id="oOEOsO-yYeTIzksyEwSU-90" value="WD3" style="text;html=1;align=center;verticalAlign=middle;resizable=0;points=[];autosize=1;strokeColor=none;fillColor=none;fontSize=12;fontFamily=Helvetica;fontColor=default;" parent="1" vertex="1">
          <mxGeometry x="818" y="1084" width="50" height="30" as="geometry" />
        </mxCell>
        <mxCell id="oOEOsO-yYeTIzksyEwSU-91" value="" style="triangle;whiteSpace=wrap;html=1;rounded=0;pointerEvents=0;strokeColor=default;fontFamily=Helvetica;fontSize=12;fontColor=default;fillColor=none;gradientColor=none;rotation=90;" parent="1" vertex="1">
          <mxGeometry x="842.5" y="956.5" width="17" height="22" as="geometry" />
        </mxCell>
        <mxCell id="oOEOsO-yYeTIzksyEwSU-92" value="Zero" style="text;html=1;align=center;verticalAlign=middle;resizable=0;points=[];autosize=1;strokeColor=none;fillColor=none;fontSize=12;fontFamily=Helvetica;fontColor=default;" parent="1" vertex="1">
          <mxGeometry x="817" y="805" width="50" height="30" as="geometry" />
        </mxCell>
        <mxCell id="oOEOsO-yYeTIzksyEwSU-93" value="op" style="text;html=1;align=center;verticalAlign=middle;resizable=0;points=[];autosize=1;strokeColor=none;fillColor=none;fontSize=12;fontFamily=Helvetica;fontColor=default;" parent="1" vertex="1">
          <mxGeometry x="818" y="744" width="40" height="30" as="geometry" />
        </mxCell>
        <mxCell id="oOEOsO-yYeTIzksyEwSU-94" value="funct3" style="text;html=1;align=center;verticalAlign=middle;resizable=0;points=[];autosize=1;strokeColor=none;fillColor=none;fontSize=12;fontFamily=Helvetica;fontColor=default;" parent="1" vertex="1">
          <mxGeometry x="816" y="764" width="60" height="30" as="geometry" />
        </mxCell>
        <mxCell id="oOEOsO-yYeTIzksyEwSU-95" value="funct7" style="text;html=1;align=center;verticalAlign=middle;resizable=0;points=[];autosize=1;strokeColor=none;fillColor=none;fontSize=12;fontFamily=Helvetica;fontColor=default;" parent="1" vertex="1">
          <mxGeometry x="817" y="782" width="60" height="30" as="geometry" />
        </mxCell>
        <mxCell id="oOEOsO-yYeTIzksyEwSU-96" value="PCSrc" style="text;html=1;align=center;verticalAlign=middle;resizable=0;points=[];autosize=1;strokeColor=none;fillColor=none;fontSize=12;fontFamily=Helvetica;fontColor=#004CFF;" parent="1" vertex="1">
          <mxGeometry x="898" y="679" width="60" height="30" as="geometry" />
        </mxCell>
        <mxCell id="oOEOsO-yYeTIzksyEwSU-97" value="ResultSrc" style="text;html=1;align=center;verticalAlign=middle;resizable=0;points=[];autosize=1;strokeColor=none;fillColor=none;fontSize=12;fontFamily=Helvetica;fontColor=#004CFF;" parent="1" vertex="1">
          <mxGeometry x="898" y="699" width="80" height="30" as="geometry" />
        </mxCell>
        <mxCell id="oOEOsO-yYeTIzksyEwSU-98" value="MemWrite" style="text;html=1;align=center;verticalAlign=middle;resizable=0;points=[];autosize=1;strokeColor=none;fillColor=none;fontSize=12;fontFamily=Helvetica;fontColor=#004CFF;" parent="1" vertex="1">
          <mxGeometry x="898" y="719" width="80" height="30" as="geometry" />
        </mxCell>
        <mxCell id="oOEOsO-yYeTIzksyEwSU-99" value="ALUControl" style="text;html=1;align=center;verticalAlign=middle;resizable=0;points=[];autosize=1;strokeColor=none;fillColor=none;fontSize=12;fontFamily=Helvetica;fontColor=#004CFF;" parent="1" vertex="1">
          <mxGeometry x="896" y="738" width="90" height="30" as="geometry" />
        </mxCell>
        <mxCell id="oOEOsO-yYeTIzksyEwSU-100" value="ALUSrc" style="text;html=1;align=center;verticalAlign=middle;resizable=0;points=[];autosize=1;strokeColor=none;fillColor=none;fontSize=12;fontFamily=Helvetica;fontColor=#004CFF;" parent="1" vertex="1">
          <mxGeometry x="901" y="757" width="60" height="30" as="geometry" />
        </mxCell>
        <mxCell id="oOEOsO-yYeTIzksyEwSU-101" value="ImmSrc" style="text;html=1;align=center;verticalAlign=middle;resizable=0;points=[];autosize=1;strokeColor=none;fillColor=none;fontSize=12;fontFamily=Helvetica;fontColor=#004CFF;" parent="1" vertex="1">
          <mxGeometry x="901" y="775" width="60" height="30" as="geometry" />
        </mxCell>
        <mxCell id="oOEOsO-yYeTIzksyEwSU-102" value="RegWrite" style="text;html=1;align=center;verticalAlign=middle;resizable=0;points=[];autosize=1;strokeColor=none;fillColor=none;fontSize=12;fontFamily=Helvetica;fontColor=#004CFF;" parent="1" vertex="1">
          <mxGeometry x="901" y="798" width="70" height="30" as="geometry" />
        </mxCell>
        <mxCell id="oOEOsO-yYeTIzksyEwSU-103" value="" style="ellipse;whiteSpace=wrap;html=1;aspect=fixed;rounded=1;pointerEvents=0;strokeColor=default;fontFamily=Helvetica;fontSize=12;fontColor=default;fillColor=none;gradientColor=none;textOpacity=0;opacity=0;" parent="1" vertex="1">
          <mxGeometry x="320" y="570" width="10" height="10" as="geometry" />
        </mxCell>
        <mxCell id="oOEOsO-yYeTIzksyEwSU-104" value="" style="ellipse;whiteSpace=wrap;html=1;aspect=fixed;rounded=1;pointerEvents=0;strokeColor=default;fontFamily=Helvetica;fontSize=12;fontColor=default;fillColor=none;gradientColor=none;textOpacity=0;opacity=0;" parent="1" vertex="1">
          <mxGeometry x="1657" y="1463" width="10" height="10" as="geometry" />
        </mxCell>
        <mxCell id="oCJ-9zISLcZd9kGl7k6v-2" value="&lt;font style=&quot;font-size: 7px;&quot;&gt;11&lt;/font&gt;" style="text;html=1;align=center;verticalAlign=middle;resizable=0;points=[];autosize=1;strokeColor=none;fillColor=none;fontSize=12;fontFamily=Helvetica;fontColor=default;fontStyle=1" vertex="1" parent="1">
          <mxGeometry x="1583" y="1033.75" width="30" height="30" as="geometry" />
        </mxCell>
        <mxCell id="oCJ-9zISLcZd9kGl7k6v-3" value="auipc" style="text;html=1;strokeColor=none;fillColor=none;align=center;verticalAlign=middle;whiteSpace=wrap;rounded=0;fontSize=32;" vertex="1" parent="1">
          <mxGeometry x="1072" y="609" width="60" height="30" as="geometry" />
        </mxCell>
        <mxCell id="oCJ-9zISLcZd9kGl7k6v-5" value="" style="endArrow=none;html=1;rounded=0;strokeWidth=2;" edge="1" parent="1">
          <mxGeometry width="50" height="50" relative="1" as="geometry">
            <mxPoint x="1270" y="1210" as="sourcePoint" />
            <mxPoint x="1570" y="1210" as="targetPoint" />
          </mxGeometry>
        </mxCell>
        <mxCell id="oCJ-9zISLcZd9kGl7k6v-6" value="" style="endArrow=none;html=1;rounded=0;strokeWidth=2;" edge="1" parent="1">
          <mxGeometry width="50" height="50" relative="1" as="geometry">
            <mxPoint x="1570" y="1210" as="sourcePoint" />
            <mxPoint x="1570" y="1050" as="targetPoint" />
          </mxGeometry>
        </mxCell>
        <mxCell id="oCJ-9zISLcZd9kGl7k6v-8" value="" style="endArrow=none;html=1;rounded=0;entryX=0.75;entryY=1;entryDx=0;entryDy=0;entryPerimeter=0;strokeWidth=2;" edge="1" parent="1" target="oOEOsO-yYeTIzksyEwSU-38">
          <mxGeometry width="50" height="50" relative="1" as="geometry">
            <mxPoint x="1570" y="1050" as="sourcePoint" />
            <mxPoint x="1570" y="1060" as="targetPoint" />
          </mxGeometry>
        </mxCell>
      </root>
    </mxGraphModel>
  </diagram>
</mxfile>
